
                         The Scarlet Pimpernel (2000)

 ===========================================================================

 Adapted from the classic play and adventure novel by Baroness Emmuska Orczy, 
 set during the Reign of Terror following the start of the French Revolution.

 Stars

    * Richard E. Grant as Sir Percy Blakeney 
    * Elizabeth McGovern as Lady Marguerite Blakeney 
    * Martin Shaw as Chauvelin 
    * John McEnery as Sir William Wetherby
    * Ronan Vibert as Robespierre    

  Series 1 and 2 (All).  6 x 90m (approx) episodes.

  http://www.tv.com/the-scarlet-pimpernel/show/10274/episode.html?season=All

 ============================================================================
 
  Format                           : AVI
  Format/Info                      : Audio Video Interleave
  File size                        : 691 MiB
  Duration                         : 1h 27mn
  Overall bit rate                 : 1,104 Kbps
  Writing library                  : VirtualDub build 24478/release
  
  Video
  ID                               : 0
  Format                           : MPEG-4 Visual
  Format profile                   : Advanced Simple@L5
  Format settings, BVOP            : Yes
  Format settings, QPel            : No
  Format settings, GMC             : No warppoints
  Format settings, Matrix          : Default (H.263)
  Muxing mode                      : Packed bitstream
  Codec ID                         : XVID
  Codec ID/Hint                    : XviD
  Duration                         : 1h 27mn
  Bit rate                         : 903 Kbps
  Width                            : 640 pixels
  Height                           : 480 pixels
  Display aspect ratio             : 4:3
  Frame rate                       : 25.000 fps
  Resolution                       : 8 bits
  Colorimetry                      : 4:2:0
  Scan type                        : Progressive
  Bits/(Pixel*Frame)               : 0.118
  Stream size                      : 564 MiB (82%)
  Writing library                  : XviD 1.1.2 (UTC 2006-11-01)
  
  Audio
  ID                               : 1
  Format                           : MPEG Audio
  Format version                   : Version 1
  Format profile                   : Layer 3
  Format_Settings_Mode             : Joint stereo
  Format_Settings_ModeExtension    : MS Stereo
  Codec ID                         : 55
  Codec ID/Hint                    : MP3
  Duration                         : 1h 27mn
  Bit rate mode                    : Constant
  Bit rate                         : 192 Kbps
  Channel(s)                       : 2 channels
  Sampling rate                    : 48.0 KHz
  Stream size                      : 120 MiB (17%)
  Alignment                        : Split accross interleaves
  Interleave, duration             : 40 ms (1.00 video frame)
  Interleave, preload duration     : 500 ms
  Writing library                  : LAME3.97
  

